<svg width="45" height="45" viewBox="0 0 45 45" fill="none" xmlns="http://www.w3.org/2000/svg">
<path d="M22.5007 6.13635C18.0568 6.13635 17.4991 6.15578 15.7537 6.23522C14.0117 6.31499 12.8226 6.59078 11.7822 6.99544C10.706 7.4134 9.79305 7.97249 8.88353 8.88238C7.97333 9.79192 7.41426 10.7049 6.99495 11.7808C6.58928 12.8216 6.31316 14.011 6.23475 15.7524C6.15668 17.4978 6.13623 18.0559 6.13623 22.5C6.13623 26.9441 6.156 27.5001 6.23509 29.2456C6.3152 30.9876 6.59099 32.1767 6.9953 33.2171C7.41358 34.2934 7.97265 35.2064 8.88251 36.1159C9.79169 37.0261 10.7046 37.5866 11.7801 38.0045C12.8213 38.4092 14.0107 38.685 15.7523 38.7648C17.4977 38.8442 18.0551 38.8636 22.4987 38.8636C26.943 38.8636 27.499 38.8442 29.2444 38.7648C30.9864 38.685 32.1768 38.4092 33.2179 38.0045C34.2938 37.5866 35.2053 37.0261 36.1145 36.1159C37.0247 35.2064 37.5838 34.2934 38.0031 33.2175C38.4054 32.1767 38.6815 30.9873 38.7633 29.2459C38.8417 27.5004 38.8622 26.9441 38.8622 22.5C38.8622 18.0559 38.8417 17.4982 38.7633 15.7527C38.6815 14.0107 38.4054 12.8216 38.0031 11.7811C37.5838 10.7049 37.0247 9.79192 36.1145 8.88238C35.2043 7.97215 34.2941 7.41306 33.2169 6.99544C32.1737 6.59078 30.984 6.31499 29.242 6.23522C27.4966 6.15578 26.9409 6.13635 22.4956 6.13635H22.5007ZM21.0328 9.08522C21.4685 9.08453 21.9546 9.08522 22.5007 9.08522C26.8697 9.08522 27.3875 9.1009 29.1128 9.17931C30.7082 9.25226 31.5741 9.51885 32.1509 9.74283C32.9145 10.0394 33.4589 10.394 34.0313 10.9667C34.604 11.5394 34.9585 12.0849 35.2558 12.8485C35.4798 13.4246 35.7467 14.2906 35.8193 15.886C35.8977 17.611 35.9148 18.1292 35.9148 22.4962C35.9148 26.8633 35.8977 27.3815 35.8193 29.1065C35.7464 30.7019 35.4798 31.5678 35.2558 32.144C34.9592 32.9076 34.604 33.4514 34.0313 34.0237C33.4586 34.5965 32.9148 34.951 32.1509 35.2476C31.5748 35.4726 30.7082 35.7385 29.1128 35.8115C27.3879 35.8899 26.8697 35.9069 22.5007 35.9069C18.1314 35.9069 17.6136 35.8899 15.8887 35.8115C14.2933 35.7378 13.4274 35.4712 12.8502 35.2473C12.0866 34.9507 11.5412 34.5961 10.9685 34.0234C10.3958 33.4507 10.0412 32.9066 9.74396 32.1426C9.51999 31.5665 9.25307 30.7006 9.18046 29.1051C9.10205 27.3801 9.08637 26.8619 9.08637 22.4921C9.08637 18.1224 9.10205 17.6069 9.18046 15.8819C9.25341 14.2865 9.51999 13.4206 9.74396 12.8437C10.0405 12.0801 10.3958 11.5346 10.9685 10.9619C11.5412 10.3892 12.0866 10.0346 12.8502 9.73738C13.427 9.51238 14.2933 9.24647 15.8887 9.17317C17.3982 9.10499 17.9831 9.08453 21.0328 9.08113V9.08522ZM31.2352 11.8023C30.1512 11.8023 29.2717 12.6808 29.2717 13.7652C29.2717 14.8493 30.1512 15.7289 31.2352 15.7289C32.3193 15.7289 33.1988 14.8493 33.1988 13.7652C33.1988 12.6811 32.3193 11.8016 31.2352 11.8016V11.8023ZM22.5007 14.0966C17.8601 14.0966 14.0976 17.8592 14.0976 22.5C14.0976 27.1408 17.8601 30.9017 22.5007 30.9017C27.1414 30.9017 30.9025 27.1408 30.9025 22.5C30.9025 17.8592 27.141 14.0966 22.5004 14.0966H22.5007ZM22.5007 17.0454C25.5129 17.0454 27.9551 19.4874 27.9551 22.5C27.9551 25.5123 25.5129 27.9545 22.5007 27.9545C19.4882 27.9545 17.0464 25.5123 17.0464 22.5C17.0464 19.4874 19.4882 17.0454 22.5007 17.0454Z" fill="white"/>
</svg>
